<svg width="134" height="134" viewBox="0 0 134 134" fill="none" xmlns="http://www.w3.org/2000/svg">
<g clip-path="url(#clip0_101_314)">
<path d="M122.554 50.25H121.047L97.8199 83.8617L93.2416 80.6792L114.291 50.25H101.226C101.226 48.399 100.49 46.6238 99.1816 45.315C97.8728 44.0061 96.0976 43.2708 94.2466 43.2708C92.3956 43.2708 90.6204 44.0061 89.3116 45.315C88.0027 46.6238 87.2674 48.399 87.2674 50.25H84.8666L77.8874 72.5833L72.5833 70.9083L79.0041 50.25H73.9791C73.9791 48.399 73.2438 46.6238 71.935 45.315C70.6261 44.0061 68.8509 43.2708 66.9999 43.2708C65.1489 43.2708 63.3738 44.0061 62.0649 45.315C60.7561 46.6238 60.0208 48.399 60.0208 50.25H54.9958L61.4166 70.9083L56.1124 72.5833L49.1333 50.25H46.7883C46.7883 48.399 46.053 46.6238 44.7441 45.315C43.4353 44.0061 41.6601 43.2708 39.8091 43.2708C37.9581 43.2708 36.1829 44.0061 34.8741 45.315C33.5652 46.6238 32.8299 48.399 32.8299 50.25H19.5974L40.6466 80.6792L36.0683 83.8617L12.8416 50.25H11.4458C12.8283 36.4767 19.2779 23.7081 29.5432 14.4216C39.8085 5.13512 53.1574 -0.00698853 66.9999 -0.00698853C80.8424 -0.00698853 94.1914 5.13512 104.457 14.4216C114.722 23.7081 121.172 36.4767 122.554 50.25Z" fill="#FFF7AB"/>
<path d="M61.4166 86.0112L53.5218 78.1667L33.3213 98.2387L25.4264 106.083L53.5218 134L61.4166 126.155L41.2161 106.083L61.4166 86.0112Z" fill="#00ADB5"/>
<path d="M72.7006 126.155L80.5954 134L100.796 113.928L108.691 106.083L80.5954 78.1667L72.7006 86.0112L92.9011 106.083L72.7006 126.155Z" fill="#00ADB5"/>
</g>
<defs>
<clipPath id="clip0_101_314">
<rect width="134" height="134" fill="white"/>
</clipPath>
</defs>
</svg>
