<svg width="206" height="206" viewBox="0 0 206 206" fill="none" xmlns="http://www.w3.org/2000/svg">
<path fill-rule="evenodd" clip-rule="evenodd" d="M111.317 72.6922C111.915 72.0927 112.626 71.6171 113.408 71.2926C114.19 70.968 115.028 70.801 115.875 70.801C116.722 70.801 117.56 70.968 118.342 71.2926C119.124 71.6171 119.835 72.0927 120.433 72.6922L146.183 98.4423C146.782 99.0402 147.258 99.7506 147.582 100.533C147.907 101.315 148.074 102.153 148.074 103C148.074 103.847 147.907 104.685 147.582 105.467C147.258 106.249 146.782 106.96 146.183 107.558L120.433 133.308C119.224 134.517 117.585 135.196 115.875 135.196C114.166 135.196 112.526 134.517 111.317 133.308C110.108 132.099 109.429 130.459 109.429 128.75C109.429 127.041 110.108 125.401 111.317 124.192L132.522 103L111.317 81.8078C110.718 81.2098 110.242 80.4994 109.918 79.7173C109.593 78.9352 109.426 78.0968 109.426 77.25C109.426 76.4032 109.593 75.5648 109.918 74.7827C110.242 74.0006 110.718 73.2902 111.317 72.6922ZM94.6828 72.6922C94.0848 72.0927 93.3744 71.6171 92.5923 71.2926C91.8102 70.968 90.9718 70.801 90.125 70.801C89.2783 70.801 88.4398 70.968 87.6577 71.2926C86.8757 71.6171 86.1653 72.0927 85.5673 72.6922L59.8173 98.4423C59.2178 99.0402 58.7421 99.7506 58.4176 100.533C58.0931 101.315 57.926 102.153 57.926 103C57.926 103.847 58.0931 104.685 58.4176 105.467C58.7421 106.249 59.2178 106.96 59.8173 107.558L85.5673 133.308C86.7761 134.517 88.4155 135.196 90.125 135.196C91.8345 135.196 93.474 134.517 94.6828 133.308C95.8916 132.099 96.5707 130.459 96.5707 128.75C96.5707 127.041 95.8916 125.401 94.6828 124.192L73.4777 103L94.6828 81.8078C95.2823 81.2098 95.7579 80.4994 96.0825 79.7173C96.407 78.9352 96.574 78.0968 96.574 77.25C96.574 76.4032 96.407 75.5648 96.0825 74.7827C95.7579 74.0006 95.2823 73.2902 94.6828 72.6922V72.6922Z" fill="#00ADB5"/>
<path d="M38.625 0H167.375C174.204 0 180.754 2.71294 185.583 7.542C190.412 12.3711 193.125 18.9207 193.125 25.75V180.25C193.125 187.079 190.412 193.629 185.583 198.458C180.754 203.287 174.204 206 167.375 206H38.625C31.7957 206 25.2461 203.287 20.417 198.458C15.5879 193.629 12.875 187.079 12.875 180.25V167.375H25.75V180.25C25.75 183.665 27.1065 186.939 29.521 189.354C31.9355 191.769 35.2103 193.125 38.625 193.125H167.375C170.79 193.125 174.064 191.769 176.479 189.354C178.894 186.939 180.25 183.665 180.25 180.25V25.75C180.25 22.3353 178.894 19.0605 176.479 16.646C174.064 14.2315 170.79 12.875 167.375 12.875H38.625C35.2103 12.875 31.9355 14.2315 29.521 16.646C27.1065 19.0605 25.75 22.3353 25.75 25.75V38.625H12.875V25.75C12.875 18.9207 15.5879 12.3711 20.417 7.542C25.2461 2.71294 31.7957 0 38.625 0V0Z" fill="#00ADB5"/>
<path d="M12.875 64.375V57.9375C12.875 56.2302 13.5532 54.5928 14.7605 53.3855C15.9678 52.1782 17.6052 51.5 19.3125 51.5C21.0198 51.5 22.6572 52.1782 23.8645 53.3855C25.0718 54.5928 25.75 56.2302 25.75 57.9375V64.375H32.1875C33.8948 64.375 35.5322 65.0532 36.7395 66.2605C37.9468 67.4678 38.625 69.1052 38.625 70.8125C38.625 72.5198 37.9468 74.1572 36.7395 75.3645C35.5322 76.5718 33.8948 77.25 32.1875 77.25H6.4375C4.73017 77.25 3.09277 76.5718 1.8855 75.3645C0.678235 74.1572 0 72.5198 0 70.8125C0 69.1052 0.678235 67.4678 1.8855 66.2605C3.09277 65.0532 4.73017 64.375 6.4375 64.375H12.875ZM12.875 103V96.5625C12.875 94.8552 13.5532 93.2178 14.7605 92.0105C15.9678 90.8032 17.6052 90.125 19.3125 90.125C21.0198 90.125 22.6572 90.8032 23.8645 92.0105C25.0718 93.2178 25.75 94.8552 25.75 96.5625V103H32.1875C33.8948 103 35.5322 103.678 36.7395 104.885C37.9468 106.093 38.625 107.73 38.625 109.438C38.625 111.145 37.9468 112.782 36.7395 113.99C35.5322 115.197 33.8948 115.875 32.1875 115.875H6.4375C4.73017 115.875 3.09277 115.197 1.8855 113.99C0.678235 112.782 0 111.145 0 109.438C0 107.73 0.678235 106.093 1.8855 104.885C3.09277 103.678 4.73017 103 6.4375 103H12.875ZM12.875 141.625V135.188C12.875 133.48 13.5532 131.843 14.7605 130.635C15.9678 129.428 17.6052 128.75 19.3125 128.75C21.0198 128.75 22.6572 129.428 23.8645 130.635C25.0718 131.843 25.75 133.48 25.75 135.188V141.625H32.1875C33.8948 141.625 35.5322 142.303 36.7395 143.51C37.9468 144.718 38.625 146.355 38.625 148.062C38.625 149.77 37.9468 151.407 36.7395 152.615C35.5322 153.822 33.8948 154.5 32.1875 154.5H6.4375C4.73017 154.5 3.09277 153.822 1.8855 152.615C0.678235 151.407 0 149.77 0 148.062C0 146.355 0.678235 144.718 1.8855 143.51C3.09277 142.303 4.73017 141.625 6.4375 141.625H12.875Z" fill="#00ADB5"/>
</svg>
