<svg width="32" height="45" viewBox="0 0 32 45" fill="none" xmlns="http://www.w3.org/2000/svg">
<path d="M15.9805 44.8863L2.95779 41.2811L0.0556641 8.82125H31.9444L29.0393 41.2761L15.9805 44.8863Z" fill="#264DE4"/>
<path d="M26.5521 39.2095L29.0346 11.4752H16V42.1267L26.5521 39.2095Z" fill="#2965F1"/>
<path d="M6.70862 23.5142L7.06637 27.4953H16V23.5142H6.70862Z" fill="#EBEBEB"/>
<path d="M5.98962 15.4564L6.3525 19.4375H16V15.4564H5.98962Z" fill="#EBEBEB"/>
<path d="M16 33.8535L15.9825 33.8581L11.5365 32.6609L11.2523 29.4859H7.24475L7.804 35.7368L15.9816 38.0005L16 37.9955V33.8535Z" fill="#EBEBEB"/>
<path d="M7.56055 0H12.3955V2.0164H9.58255V4.0328H12.3958V6.04907H7.56055V0Z" fill="black"/>
<path d="M13.3626 0H18.1977V1.75338H15.3845V2.10403H18.1977V6.13683H13.3627V4.29557H16.1758V3.94492H13.3624V0H13.3626Z" fill="black"/>
<path d="M19.1649 0H24V1.75338H21.1869V2.10403H24V6.13683H19.1649V4.29557H21.978V3.94492H19.165V0H19.1649Z" fill="black"/>
<path d="M25.2658 23.5142L25.9865 15.4564H15.9862V19.4375H21.6115L21.2482 23.5142H15.9862V27.4953H20.9021L20.4386 32.6584L15.9861 33.8568V37.9986L24.1702 35.7367L24.2302 35.0641L25.1685 24.5832L25.2658 23.5142Z" fill="white"/>
</svg>
