<svg width="31" height="31" viewBox="0 0 31 31" fill="none" xmlns="http://www.w3.org/2000/svg">
<g clip-path="url(#clip0_102_540)">
<path d="M3.44444 4.30556C2.53092 4.30556 1.65481 4.66845 1.00885 5.31441C0.362896 5.96037 0 6.83648 0 7.75L0 23.25C0 24.1635 0.362896 25.0396 1.00885 25.6856C1.65481 26.3315 2.53092 26.6944 3.44444 26.6944H10.3333V4.30556H3.44444Z" fill="#D91023"/>
<path d="M10.3333 4.30556H20.6667V26.6944H10.3333V4.30556Z" fill="#EEEEEE"/>
<path d="M27.5556 4.30556H20.6667V26.6944H27.5556C28.4691 26.6944 29.3452 26.3315 29.9911 25.6856C30.6371 25.0396 31 24.1635 31 23.25V7.75C31 6.83648 30.6371 5.96037 29.9911 5.31441C29.3452 4.66845 28.4691 4.30556 27.5556 4.30556Z" fill="#D91023"/>
</g>
<defs>
<clipPath id="clip0_102_540">
<rect width="31" height="31" fill="white"/>
</clipPath>
</defs>
</svg>
