<svg width="45" height="45" viewBox="0 0 45 45" fill="none" xmlns="http://www.w3.org/2000/svg">
<g clip-path="url(#clip0_102_654)">
<path d="M44.1499 20.4946L24.5017 0.849317C24.2327 0.580166 23.9133 0.366655 23.5617 0.220984C23.2102 0.0753131 22.8334 0.000335693 22.4528 0.000335693C22.0723 0.000335693 21.6955 0.0753131 21.3439 0.220984C20.9924 0.366655 20.6729 0.580166 20.4039 0.849317L16.3258 4.92744L21.5008 10.1024C22.1111 9.89406 22.7677 9.86146 23.3957 10.0084C24.0237 10.1553 24.5977 10.4757 25.0522 10.9332C25.5068 11.3907 25.8236 11.9668 25.9664 12.5957C26.1093 13.2246 26.0725 13.881 25.8602 14.4899L30.8467 19.4793C31.5845 19.2196 32.3887 19.2188 33.127 19.4771C33.8652 19.7354 34.4935 20.2374 34.9084 20.9005C35.3232 21.5635 35.4999 22.3481 35.4094 23.125C35.3188 23.9019 34.9664 24.6248 34.4102 25.1746C33.8471 25.7412 33.1047 26.0947 32.3099 26.1747C31.5152 26.2547 30.7173 26.0563 30.0525 25.6134C29.3878 25.1704 28.8974 24.5104 28.6653 23.7461C28.4331 22.9818 28.4735 22.1606 28.7795 21.4228L24.1305 16.7709V29.0137C24.8371 29.3635 25.4026 29.9449 25.7325 30.6611C26.0625 31.3772 26.137 32.1848 25.9437 32.9492C25.7504 33.7137 25.301 34.3888 24.6703 34.862C24.0396 35.3352 23.2657 35.578 22.4777 35.5499C21.6897 35.5217 20.9352 35.2244 20.3399 34.7073C19.7445 34.1903 19.3444 33.4849 19.2061 32.7086C19.0678 31.9323 19.1998 31.1321 19.58 30.4413C19.9602 29.7505 20.5657 29.2109 21.2955 28.9124V16.5571C20.8744 16.3846 20.4917 16.1304 20.1693 15.8093C19.8469 15.4881 19.5913 15.1063 19.4172 14.6859C19.2431 14.2655 19.1539 13.8148 19.1548 13.3598C19.1557 12.9047 19.2466 12.4544 19.4224 12.0346L14.3233 6.93275L0.851423 20.4046C0.582271 20.6737 0.368761 20.9931 0.22309 21.3446C0.0774188 21.6962 0.00244141 22.073 0.00244141 22.4535C0.00244141 22.8341 0.0774188 23.2109 0.22309 23.5625C0.368761 23.914 0.582271 24.2334 0.851423 24.5024L20.4995 44.1506C20.7686 44.4197 21.088 44.6332 21.4395 44.7789C21.7911 44.9246 22.1679 44.9995 22.5485 44.9995C22.929 44.9995 23.3058 44.9246 23.6574 44.7789C24.0089 44.6332 24.3283 44.4197 24.5974 44.1506L44.1527 24.5953C44.6956 24.0516 45.0005 23.3147 45.0005 22.5464C45.0005 21.778 44.6956 21.0411 44.1527 20.4974" fill="#F2994A"/>
</g>
<defs>
<clipPath id="clip0_102_654">
<rect width="45" height="45" fill="white"/>
</clipPath>
</defs>
</svg>
