<svg width="55" height="78" viewBox="0 0 55 78" fill="none" xmlns="http://www.w3.org/2000/svg">
<path d="M54.9044 15.2902L49.9112 71.5452L27.4665 77.8029L5.08361 71.5539L0.0955811 15.2902H54.9044Z" fill="#E44D26"/>
<path d="M27.5 73.0197L45.6365 67.9631L49.9033 19.8904H27.5V73.0197Z" fill="#F16529"/>
<path d="M17.7934 33.6917H27.5V26.7912H10.2947L10.4588 28.6424L12.1453 47.6584H27.5V40.7579H18.4205L17.7934 33.6917Z" fill="#EBEBEB"/>
<path d="M19.3398 51.1088H12.4519L13.4131 61.9437L27.4684 65.8674L27.5 65.8588V58.6793L27.4699 58.6873L19.8284 56.6122L19.3398 51.1088Z" fill="#EBEBEB"/>
<path d="M5.19495 0H8.68186V3.46463H11.8716V0H15.3588V10.4918H11.8719V6.97851H8.68208V10.4918H5.19516V0H5.19495Z" fill="black"/>
<path d="M19.9439 3.47932H16.8746V0H26.5026V3.47932H23.4315V10.4918H19.9445V3.47932H19.9443H19.9439Z" fill="black"/>
<path d="M28.0306 0H31.6664L33.903 3.68653L36.1373 0H39.7746V10.4918H36.3019V5.29147L33.903 9.02185H33.8428L31.4424 5.29147V10.4918H28.0306V0Z" fill="black"/>
<path d="M41.51 0H44.998V7.02389H49.9016V10.4918H41.5098V0H41.51Z" fill="black"/>
<path d="M27.4763 47.6584H35.9254L35.1288 56.6079L27.4761 58.6852V65.8642L41.5425 61.9437L41.6457 60.7778L43.2583 42.6109L43.4256 40.7579H27.4763V47.6584Z" fill="white"/>
<path d="M27.4763 33.6748V33.6917H44.05L44.1875 32.1408L44.5003 28.6424L44.6642 26.7912H27.4763V33.675V33.6748Z" fill="white"/>
</svg>
