<svg width="49" height="67" viewBox="0 0 49 67" fill="none" xmlns="http://www.w3.org/2000/svg">
<path d="M15.8014 51.7939C15.8014 51.7939 13.2752 53.2801 17.5993 53.783C22.8379 54.3875 25.5151 54.301 31.2881 53.1955C31.2881 53.1955 32.8059 54.1583 34.9254 54.9923C21.9842 60.6034 5.63657 54.6672 15.8014 51.7939Z" fill="#5382A1"/>
<path d="M14.22 44.4715C14.22 44.4715 11.3866 46.5935 15.7139 47.0462C21.3099 47.6302 25.729 47.678 33.3761 46.1884C33.3761 46.1884 34.4338 47.2731 36.097 47.8665C20.4501 52.4952 3.02234 48.2315 14.22 44.4715Z" fill="#5382A1"/>
<path d="M27.5514 32.0506C30.7402 35.7646 26.7136 39.1069 26.7136 39.1069C26.7136 39.1069 34.8103 34.8783 31.0918 29.583C27.6189 24.6452 24.9555 22.1913 39.3736 13.7319C39.3736 13.7319 16.7421 19.4501 27.5514 32.0504" fill="#E76F00"/>
<path d="M44.6673 57.2099C44.6673 57.2099 46.5367 58.7681 42.6083 59.9737C35.1385 62.2631 11.5178 62.9544 4.95604 60.0649C2.59734 59.027 7.02074 57.5863 8.41207 57.2838C9.86312 56.9655 10.6925 57.0249 10.6925 57.0249C8.06926 55.1553 -6.26285 60.6958 3.41254 62.2823C29.7985 66.6114 51.5114 60.3331 44.6673 57.2099Z" fill="#5382A1"/>
<path d="M17.0161 36.8848C17.0161 36.8848 5.0013 39.7721 12.7615 40.8202C16.038 41.2641 22.5697 41.1638 28.6539 40.6479C33.6263 40.2238 38.6191 39.3214 38.6191 39.3214C38.6191 39.3214 36.8658 40.0811 35.5974 40.9573C23.3964 44.2037 -0.173752 42.6935 6.61179 39.3728C12.3503 36.5665 17.0163 36.8848 17.0163 36.8848" fill="#5382A1"/>
<path d="M38.5695 49.073C50.9726 42.5527 45.2379 36.2869 41.2352 37.1312C40.2541 37.3376 39.8167 37.5165 39.8167 37.5165C39.8167 37.5165 40.181 36.9395 40.8765 36.6897C48.795 33.8731 54.885 44.9963 38.3203 49.4016C38.3203 49.4018 38.5123 49.2283 38.5695 49.073Z" fill="#5382A1"/>
<path d="M31.0918 0.0718489C31.0918 0.0718489 37.9608 7.02358 24.5769 17.7128C13.8445 26.2876 22.1296 31.1767 24.5725 36.7627C18.3078 31.0444 13.7102 26.0105 16.7947 21.3256C21.3216 14.448 33.8631 11.1137 31.0918 0.0716553" fill="#E76F00"/>
<path d="M18.235 66.7415C30.1403 67.5126 48.422 66.3137 48.855 60.6147C48.855 60.6147 48.0228 62.7753 39.016 64.491C28.8546 66.4254 16.3221 66.1997 8.88879 64.9598C8.88899 64.9598 10.4105 66.2339 18.2352 66.7415" fill="#5382A1"/>
</svg>
