<svg width="49" height="49" viewBox="0 0 49 49" fill="none" xmlns="http://www.w3.org/2000/svg">
<path d="M3.0625 3.0625H45.9375V45.9375H3.0625V3.0625Z" fill="#F5DE19"/>
<path d="M31.8637 36.5586C32.229 37.3006 32.7966 37.9243 33.501 38.3578C34.2054 38.7913 35.0179 39.0169 35.845 39.0086C37.514 39.0086 38.5813 38.1741 38.5813 37.018C38.5813 35.6398 37.485 35.1468 35.6475 34.3429L34.6399 33.9111C31.7305 32.6723 29.8011 31.1211 29.8011 27.8412C29.8011 24.82 32.098 22.5186 35.701 22.5186C36.8674 22.4343 38.0328 22.6954 39.0517 23.2691C40.0707 23.8429 40.8982 24.7039 41.431 25.7449L38.2812 27.7585C38.076 27.2423 37.7188 26.8007 37.2569 26.4923C36.795 26.1838 36.2503 26.023 35.6949 26.0312C35.4526 26.007 35.2079 26.0335 34.9764 26.109C34.7449 26.1845 34.5317 26.3075 34.3503 26.47C34.1689 26.6325 34.0234 26.831 33.923 27.0528C33.8226 27.2747 33.7695 27.515 33.7671 27.7585C33.7671 28.9667 34.5159 29.4567 36.2446 30.2085L37.2522 30.6403C40.6761 32.1088 42.6116 33.6048 42.6116 36.969C42.6116 40.5965 39.7619 42.5841 35.9353 42.5841C34.4444 42.6791 32.9577 42.3405 31.6549 41.6094C30.3521 40.8782 29.2886 39.7856 28.593 38.4635L31.8637 36.5586ZM17.6308 36.9077C18.2632 38.0301 18.8389 38.9795 20.2232 38.9795C21.5462 38.9795 22.3822 38.4619 22.3822 36.4483V22.7482H26.411V36.5019C26.411 40.6731 23.961 42.5718 20.3947 42.5718C19.1341 42.6407 17.8821 42.3266 16.8034 41.6706C15.7247 41.0147 14.8697 40.0477 14.3508 38.8968L17.6308 36.9077Z" fill="black"/>
</svg>
