<svg width="144" height="144" viewBox="0 0 144 144" fill="none" xmlns="http://www.w3.org/2000/svg">
<path d="M95.24 104C93.84 107.6 91.48 110 88.8 110H54.96C52.24 110 49.92 107.6 48.52 104H4V111C4.20473 113.565 5.41018 115.947 7.35604 117.631C9.30191 119.315 11.832 120.166 14.4 120H129.6C132.168 120.166 134.698 119.315 136.644 117.631C138.59 115.947 139.795 113.565 140 111V104H95.24Z" fill="#FFF7AB"/>
<path d="M28 40H94.64C91.6057 35.2153 89.9963 29.6657 90 24H22C20.3732 24.0419 18.829 24.7259 17.7048 25.9026C16.5807 27.0793 15.9677 28.653 16 30.28V96H28V40Z" fill="#FFF7AB"/>
<path d="M128 52.88C124.102 53.9954 120.011 54.2681 116 53.68V96H128V52.88Z" fill="#FFF7AB"/>
<path d="M120 44C131.046 44 140 35.0457 140 24C140 12.9543 131.046 4 120 4C108.954 4 100 12.9543 100 24C100 35.0457 108.954 44 120 44Z" fill="#FFB0AB"/>
</svg>
