<svg width="32" height="32" viewBox="0 0 32 32" fill="none" xmlns="http://www.w3.org/2000/svg">
<path d="M22.6667 17.5068V22.4362H19.8093V17.8362C19.8093 16.6815 19.396 15.8935 18.3613 15.8935C17.572 15.8935 17.1013 16.4242 16.8947 16.9388C16.82 17.1228 16.8 17.3788 16.8 17.6348V22.4362H13.9413C13.9413 22.4362 13.98 14.6468 13.9413 13.8402H16.8V15.0575L16.7813 15.0855H16.8V15.0588C17.18 14.4722 17.8573 13.6375 19.376 13.6375C21.256 13.6375 22.6667 14.8668 22.6667 17.5068V17.5068ZM10.9507 9.69482C9.97334 9.69482 9.33334 10.3375 9.33334 11.1802C9.33334 12.0068 9.95467 12.6668 10.9133 12.6668H10.932C11.9293 12.6668 12.5493 12.0055 12.5493 11.1802C12.5307 10.3375 11.9293 9.69482 10.9507 9.69482ZM9.50267 22.4362H12.3613V13.8402H9.50267V22.4362V22.4362Z" fill="#EEEEEE"/>
<path d="M8 5.33341C7.29276 5.33341 6.61448 5.61437 6.11438 6.11446C5.61429 6.61456 5.33333 7.29284 5.33333 8.00008V24.0001C5.33333 24.7073 5.61429 25.3856 6.11438 25.8857C6.61448 26.3858 7.29276 26.6667 8 26.6667H24C24.7072 26.6667 25.3855 26.3858 25.8856 25.8857C26.3857 25.3856 26.6667 24.7073 26.6667 24.0001V8.00008C26.6667 7.29284 26.3857 6.61456 25.8856 6.11446C25.3855 5.61437 24.7072 5.33341 24 5.33341H8ZM8 2.66675H24C25.4145 2.66675 26.771 3.22865 27.7712 4.22885C28.7714 5.22904 29.3333 6.58559 29.3333 8.00008V24.0001C29.3333 25.4146 28.7714 26.7711 27.7712 27.7713C26.771 28.7715 25.4145 29.3334 24 29.3334H8C6.58551 29.3334 5.22896 28.7715 4.22877 27.7713C3.22857 26.7711 2.66667 25.4146 2.66667 24.0001V8.00008C2.66667 6.58559 3.22857 5.22904 4.22877 4.22885C5.22896 3.22865 6.58551 2.66675 8 2.66675V2.66675Z" fill="#EEEEEE"/>
</svg>
