<svg width="63" height="14" viewBox="0 0 63 14" fill="none" xmlns="http://www.w3.org/2000/svg">
<path d="M10.214 4.54L10.394 2.65H10.304L9.62 4.378L6.344 10.066H5.894L2.42 4.36L1.772 2.65H1.682L1.934 4.522V13H0.53V0.399999H1.646L5.588 6.844L6.182 8.248H6.218L6.776 6.808L10.538 0.399999H11.708V13H10.214V4.54ZM22.3103 7.222H16.2623V13H14.7683V0.399999H16.2623V5.89H22.3103V0.399999H23.8043V13H22.3103V7.222Z" fill="#00ADB5"/>
<path d="M34.926 12.478C34.566 12.754 34.11 12.946 33.558 13.054C33.006 13.162 32.418 13.216 31.794 13.216C31.038 13.216 30.33 13.09 29.67 12.838C29.01 12.574 28.434 12.178 27.942 11.65C27.45 11.122 27.06 10.45 26.772 9.634C26.484 8.806 26.34 7.828 26.34 6.7C26.34 5.524 26.496 4.528 26.808 3.712C27.132 2.884 27.552 2.212 28.068 1.696C28.596 1.168 29.184 0.783999 29.832 0.543999C30.48 0.304 31.14 0.184 31.812 0.184C32.532 0.184 33.12 0.226 33.576 0.309999C34.032 0.381999 34.422 0.483999 34.746 0.616L34.386 1.93C33.81 1.654 32.988 1.516 31.92 1.516C31.428 1.516 30.942 1.606 30.462 1.786C29.982 1.966 29.55 2.26 29.166 2.668C28.794 3.076 28.494 3.61 28.266 4.27C28.038 4.93 27.924 5.74 27.924 6.7C27.924 7.564 28.032 8.32 28.248 8.968C28.464 9.616 28.758 10.156 29.13 10.588C29.514 11.02 29.958 11.344 30.462 11.56C30.978 11.776 31.536 11.884 32.136 11.884C32.676 11.884 33.144 11.83 33.54 11.722C33.948 11.614 34.29 11.476 34.566 11.308L34.926 12.478ZM35.8644 8.5C35.8644 6.976 36.2004 5.812 36.8724 5.008C37.5564 4.192 38.5344 3.784 39.8064 3.784C40.4784 3.784 41.0604 3.898 41.5524 4.126C42.0564 4.342 42.4704 4.66 42.7944 5.08C43.1184 5.488 43.3584 5.986 43.5144 6.574C43.6704 7.15 43.7484 7.792 43.7484 8.5C43.7484 10.024 43.4064 11.194 42.7224 12.01C42.0504 12.814 41.0784 13.216 39.8064 13.216C39.1344 13.216 38.5464 13.108 38.0424 12.892C37.5504 12.664 37.1424 12.346 36.8184 11.938C36.4944 11.518 36.2544 11.02 36.0984 10.444C35.9424 9.856 35.8644 9.208 35.8644 8.5ZM37.3584 8.5C37.3584 8.956 37.4004 9.394 37.4844 9.814C37.5804 10.234 37.7244 10.6 37.9164 10.912C38.1084 11.224 38.3604 11.476 38.6724 11.668C38.9844 11.86 39.3624 11.956 39.8064 11.956C41.4384 11.968 42.2544 10.816 42.2544 8.5C42.2544 8.032 42.2064 7.588 42.1104 7.168C42.0264 6.748 41.8884 6.382 41.6964 6.07C41.5044 5.758 41.2524 5.512 40.9404 5.332C40.6284 5.14 40.2504 5.044 39.8064 5.044C38.1744 5.032 37.3584 6.184 37.3584 8.5ZM52.9308 9.904C52.9308 10.516 52.9368 11.074 52.9488 11.578C52.9608 12.07 53.0148 12.556 53.1108 13.036H52.1388L51.7788 11.758H51.7068C51.4668 12.178 51.1188 12.526 50.6628 12.802C50.2068 13.078 49.6728 13.216 49.0608 13.216C47.8608 13.216 46.9668 12.838 46.3788 12.082C45.8028 11.326 45.5148 10.144 45.5148 8.536C45.5148 7 45.8748 5.836 46.5948 5.044C47.3268 4.24 48.3288 3.838 49.6008 3.838C50.0448 3.838 50.3928 3.862 50.6448 3.91C50.9088 3.958 51.1908 4.036 51.4908 4.144V0.399999H52.9308V9.904ZM49.2948 11.956C49.9068 11.956 50.3928 11.8 50.7528 11.488C51.1128 11.164 51.3588 10.678 51.4908 10.03V5.566C51.2748 5.398 51.0288 5.278 50.7528 5.206C50.4768 5.134 50.1108 5.098 49.6548 5.098C48.8268 5.098 48.1788 5.374 47.7108 5.926C47.2428 6.466 47.0088 7.336 47.0088 8.536C47.0088 9.028 47.0448 9.484 47.1168 9.904C47.2008 10.324 47.3328 10.684 47.5128 10.984C47.6928 11.284 47.9268 11.524 48.2148 11.704C48.5148 11.872 48.8748 11.956 49.2948 11.956ZM62.2744 12.28C61.9144 12.568 61.4584 12.796 60.9064 12.964C60.3664 13.132 59.7904 13.216 59.1784 13.216C58.4944 13.216 57.9004 13.108 57.3964 12.892C56.8924 12.664 56.4784 12.346 56.1544 11.938C55.8304 11.518 55.5904 11.02 55.4344 10.444C55.2784 9.868 55.2004 9.22 55.2004 8.5C55.2004 6.964 55.5424 5.794 56.2264 4.99C56.9104 4.186 57.8884 3.784 59.1604 3.784C59.5684 3.784 59.9764 3.832 60.3844 3.928C60.7924 4.012 61.1584 4.18 61.4824 4.432C61.8064 4.684 62.0704 5.044 62.2744 5.512C62.4784 5.968 62.5804 6.574 62.5804 7.33C62.5804 7.726 62.5444 8.164 62.4724 8.644H56.6944C56.6944 9.172 56.7484 9.64 56.8564 10.048C56.9644 10.456 57.1324 10.804 57.3604 11.092C57.5884 11.368 57.8824 11.584 58.2424 11.74C58.6144 11.884 59.0644 11.956 59.5924 11.956C60.0004 11.956 60.4084 11.884 60.8164 11.74C61.2244 11.596 61.5304 11.428 61.7344 11.236L62.2744 12.28ZM59.1784 5.044C58.4704 5.044 57.9004 5.23 57.4684 5.602C57.0484 5.974 56.7964 6.61 56.7124 7.51H61.1764C61.1764 6.598 61.0024 5.962 60.6544 5.602C60.3064 5.23 59.8144 5.044 59.1784 5.044Z" fill="#EEEEEE"/>
</svg>
