<svg width="171" height="171" viewBox="0 0 171 171" fill="none" xmlns="http://www.w3.org/2000/svg">
<path d="M85.5 14.25C46.2128 14.25 14.25 39.8216 14.25 71.25C14.25 91.9695 27.7733 110.544 49.875 120.655V156.75L87.9225 128.214C126.091 127.196 156.75 102.03 156.75 71.25C156.75 39.8216 124.787 14.25 85.5 14.25ZM85.5 114H83.1274L64.125 128.25V111.029L59.5579 109.269C40.3988 101.895 28.5 87.324 28.5 71.25C28.5 47.6734 54.0716 28.5 85.5 28.5C116.928 28.5 142.5 47.6734 142.5 71.25C142.5 94.8266 116.928 114 85.5 114Z" fill="#EEEEEE"/>
<path d="M49.875 49.875H121.125V64.125H49.875V49.875ZM49.875 78.375H99.75V92.625H49.875V78.375Z" fill="#EEEEEE"/>
</svg>
