<svg width="130" height="37" viewBox="0 0 130 37" fill="none" xmlns="http://www.w3.org/2000/svg">
<g clip-path="url(#clip0_102_656)">
<path fill-rule="evenodd" clip-rule="evenodd" d="M121.04 15.3228C120.924 15.3461 120.806 15.6034 120.806 15.7435C120.783 16.6792 120.76 19.1581 120.76 20.8419C120.76 20.8888 120.83 20.9823 120.9 20.9823C121.251 21.0056 122.095 21.0289 122.821 21.0289C123.829 21.0289 124.415 20.8888 124.743 20.7486C125.586 20.3275 125.985 19.4154 125.985 18.4095C125.985 16.1414 124.391 15.2759 122.025 15.2759C121.861 15.2526 121.392 15.2526 121.04 15.3228ZM127.086 25.7766C127.086 23.4613 125.375 22.1749 122.283 22.1749C122.142 22.1749 121.158 22.1516 120.923 22.1982C120.853 22.2218 120.76 22.2687 120.76 22.3389C120.76 23.9991 120.736 26.642 120.806 27.6709C120.853 28.1152 121.181 28.7467 121.58 28.9338C122.001 29.1677 122.962 29.2143 123.618 29.2143C125.469 29.2143 127.086 28.1854 127.086 25.7766ZM116.261 14.0367C116.495 14.0367 117.198 14.1066 119.002 14.1066C120.713 14.1066 122.072 14.06 123.735 14.06C125.774 14.06 128.585 14.7848 128.585 17.8251C128.585 19.3219 127.531 20.5147 126.149 21.0994C126.078 21.1227 126.078 21.1693 126.149 21.1926C128.117 21.684 129.851 22.9 129.851 25.1917C129.851 27.437 128.445 28.8636 126.406 29.7523C125.164 30.2901 123.618 30.4771 122.048 30.4771C120.853 30.4771 117.643 30.337 115.863 30.3838C115.675 30.3134 116.027 29.4715 116.19 29.3314C116.612 29.3078 116.94 29.2845 117.385 29.1441C118.018 28.9806 118.088 28.7934 118.182 27.8346C118.229 27.0161 118.229 24.1159 118.229 22.0581C118.229 19.2283 118.253 17.3107 118.229 16.3753C118.206 15.6505 117.948 15.4163 117.432 15.2759C117.034 15.206 116.378 15.1122 115.839 15.0423C115.722 14.9252 116.12 14.13 116.261 14.0367ZM102.741 28.583C103.304 29.027 104.405 29.214 105.389 29.214C106.654 29.214 107.919 28.9806 109.138 27.881C110.38 26.7589 111.247 25.0282 111.247 22.2687C111.247 19.6257 110.239 17.4741 108.177 16.2116C107.006 15.4863 105.506 15.1827 103.772 15.1827C103.257 15.1827 102.765 15.206 102.46 15.3461C102.39 15.393 102.226 15.6034 102.226 15.7202C102.179 16.188 102.179 19.7894 102.179 21.8944C102.179 24.0693 102.179 27.1096 102.226 27.4603C102.226 27.8113 102.39 28.3491 102.741 28.583H102.741ZM97.4221 14.0364C97.8675 14.0364 99.5778 14.1066 100.398 14.1066C101.874 14.1066 102.929 14.0367 105.717 14.0367C108.06 14.0367 110.028 14.668 111.434 15.8606C113.144 17.334 114.035 19.3687 114.035 21.8475C114.035 25.379 112.418 27.4137 110.801 28.583C109.185 29.7756 107.076 30.4771 104.077 30.4771C102.483 30.4771 99.7421 30.4305 97.4691 30.4069H97.4457C97.3287 30.1966 97.6331 29.378 97.8205 29.3547C98.4299 29.2845 98.5939 29.2609 98.8986 29.1443C99.3904 28.9571 99.4844 28.6998 99.5547 27.8346C99.6248 26.2208 99.6014 24.2799 99.6014 22.0814C99.6014 20.5147 99.6248 17.4508 99.5778 16.4686C99.5077 15.6502 99.1563 15.4396 98.4532 15.2993C98.1018 15.2293 97.6331 15.1355 96.9773 15.0656C96.8833 14.9016 97.3051 14.1768 97.4221 14.0367V14.0364Z" fill="#8E714E"/>
<path fill-rule="evenodd" clip-rule="evenodd" d="M69.0709 29.4948C68.4851 29.4246 68.0634 29.3314 67.548 29.0975C67.4776 29.0506 67.3603 28.8169 67.3603 28.7231C67.3136 27.9046 67.3136 25.566 67.3136 23.9993C67.3136 22.7362 67.1029 21.6371 66.5638 20.8655C65.9311 19.9764 65.0175 19.4622 63.8457 19.4622C62.8149 19.4622 61.4324 20.1637 60.2842 21.146C60.2608 21.1693 60.0735 21.3333 60.0968 21.0758C60.0968 20.8186 60.1438 20.3041 60.1672 19.9531C60.1908 19.6257 60.0031 19.4622 60.0031 19.4622C59.2533 19.8363 57.1447 20.3274 56.3713 20.3974C55.8091 20.5147 55.6684 21.0525 56.2545 21.2395H56.2778C56.91 21.4265 57.332 21.6371 57.6598 21.8477C57.8942 22.0348 57.8708 22.292 57.8708 22.5026C57.8942 24.2563 57.8942 26.9459 57.8241 28.4193C57.8008 29.0039 57.6367 29.2143 57.2147 29.3078L57.2617 29.2845C56.9337 29.3547 56.6759 29.4246 56.2776 29.4715C56.1369 29.6119 56.1369 30.3603 56.2776 30.524C56.5353 30.524 57.8942 30.4538 59.0192 30.4538C60.5655 30.4538 61.3623 30.524 61.7604 30.524C61.9244 30.337 61.9714 29.6352 61.8777 29.4715C61.4324 29.4482 61.1043 29.4016 60.7999 29.3078C60.3782 29.214 60.2608 29.0039 60.2372 28.5128C60.1908 27.2731 60.1908 24.6539 60.1908 22.8766C60.1908 22.3855 60.3312 22.1516 60.4716 22.0112C61.0106 21.5436 61.8777 21.2162 62.6509 21.2162C63.4007 21.2162 63.8925 21.4501 64.2675 21.7542C64.7829 22.1749 64.9469 22.7831 65.0173 23.2274C65.1343 24.233 65.0876 26.2208 65.0876 27.9515C65.0876 28.8869 65.0173 29.1208 64.6661 29.2376C64.5018 29.3078 64.0801 29.4016 63.588 29.4479C63.424 29.6119 63.471 30.337 63.588 30.5007C64.2675 30.5007 65.0642 30.4305 66.2358 30.4305C67.6884 30.4305 68.6258 30.5007 69.0008 30.5007C69.1176 30.3603 69.1646 29.6821 69.0709 29.4948ZM75.5612 20.5616C74.3196 20.5616 73.5462 21.5203 73.5462 23.0168C73.5462 24.5371 74.2257 26.291 76.147 26.291C76.475 26.291 77.0844 26.1506 77.3652 25.8232C77.8106 25.4025 78.1153 24.5604 78.1153 23.6716C78.1153 21.7307 77.1545 20.5614 75.5612 20.5614V20.5616ZM75.3972 30.898C74.9288 30.898 74.6005 31.0384 74.3897 31.1555C73.4056 31.7865 72.9605 32.3948 72.9605 33.1201C72.9605 33.798 73.2182 34.3357 73.7806 34.8036C74.46 35.3882 75.3972 35.669 76.5921 35.669C78.9821 35.669 80.0366 34.3826 80.0366 33.1201C80.0366 32.2311 79.5912 31.6464 78.6777 31.3192C78.0216 31.0384 76.8267 30.898 75.3972 30.898ZM75.5612 36.9787C74.132 36.9787 73.1009 36.6746 72.2107 35.9964C71.3436 35.3416 70.9688 34.3593 70.9688 33.6811C70.9688 33.4941 71.0158 32.9794 71.4375 32.5118C71.695 32.231 72.2577 31.6933 73.5932 30.7812C73.6399 30.7579 73.6633 30.7346 73.6633 30.6874C73.6633 30.6408 73.6163 30.5939 73.5696 30.5709C72.4684 30.1499 72.1404 29.4715 72.0464 29.0975V29.0506C72.0233 28.9102 71.9763 28.77 72.1873 28.6296C72.3514 28.5128 72.5857 28.3724 72.8432 28.2089C73.2416 27.9748 73.6633 27.7176 73.921 27.507C73.968 27.4603 73.968 27.4137 73.968 27.3668C73.968 27.3199 73.921 27.2731 73.874 27.25C72.2343 26.712 71.4142 25.4958 71.4142 23.6716C71.4142 22.479 71.953 21.4032 72.9135 20.7251C73.5696 20.2106 75.2098 19.5791 76.2877 19.5791H76.358C77.4592 19.6024 78.0683 19.8363 78.9351 20.1404C79.4039 20.3041 79.8492 20.3741 80.4586 20.3741C81.3721 20.3741 81.7705 20.0935 82.0983 19.7664C82.1219 19.813 82.1689 19.9301 82.1923 20.2339C82.2156 20.538 82.1219 20.9823 81.8876 21.3097C81.7002 21.5669 81.2784 21.7542 80.8567 21.7542H80.7394C80.3177 21.7073 80.13 21.6605 80.13 21.6605L80.0366 21.7073C80.0132 21.7542 80.0366 21.8009 80.0599 21.8711L80.0836 21.9179C80.1303 22.1283 80.224 22.7596 80.224 22.9235C80.224 24.8412 79.4508 25.6828 78.6307 26.3143C77.834 26.899 76.9204 27.2731 75.8893 27.3668C75.8659 27.3668 75.7725 27.3668 75.5612 27.3901C75.4442 27.3901 75.2802 27.4137 75.2565 27.4137H75.2332C75.0458 27.4603 74.5774 27.6942 74.5774 28.0916C74.5774 28.4424 74.7881 28.8635 75.7956 28.9337C76.0063 28.9571 76.2171 28.9571 76.4517 28.9806C77.7872 29.0739 79.4508 29.191 80.224 29.4482C81.3018 29.8456 81.9813 30.8045 81.9813 31.9505C81.9813 33.6814 80.7397 35.295 78.6777 36.3003C77.6702 36.7448 76.6624 36.9787 75.5612 36.9787ZM88.9167 20.6784C88.4249 20.6784 87.9795 20.795 87.6515 21.0289C86.7379 21.5903 86.2692 22.7129 86.2692 24.3498C86.2692 27.4137 87.8155 29.5653 90.0181 29.5653C90.6742 29.5653 91.1897 29.378 91.6348 29.0039C92.3142 28.4424 92.6659 27.3199 92.6659 25.753C92.6659 22.7129 91.1427 20.6782 88.917 20.6782L88.9167 20.6784ZM89.3387 30.6877C85.3554 30.6877 83.9262 27.7644 83.9262 25.0282C83.9262 23.1106 84.6993 21.6371 86.2456 20.5847C87.3471 19.9065 88.6592 19.5324 89.8308 19.5324C92.8766 19.5324 95.0089 21.7073 95.0089 24.8412C95.0089 26.9692 94.1655 28.6529 92.5486 29.6821C91.7754 30.1966 90.4399 30.6877 89.3384 30.6877H89.3387ZM47.5848 20.6782C47.0928 20.6782 46.6477 20.795 46.3194 21.0289C45.4058 21.5903 44.9371 22.7129 44.9371 24.3498C44.9371 27.4137 46.4834 29.5653 48.686 29.5653C49.3421 29.5653 49.8575 29.378 50.3029 29.0039C50.9821 28.4424 51.3338 27.3199 51.3338 25.753C51.3338 22.7129 49.8342 20.6782 47.5848 20.6782ZM48.0066 30.6877C44.0233 30.6877 42.594 27.7644 42.594 25.0282C42.594 23.1106 43.3672 21.6371 44.9135 20.5847C46.0149 19.9065 47.3271 19.5324 48.4986 19.5324C51.5448 19.5324 53.6768 21.7073 53.6768 24.8412C53.6768 26.9692 52.8333 28.6529 51.2165 29.6821C50.4667 30.1966 49.1311 30.6877 48.0066 30.6877ZM21.225 30.4538C21.1781 30.3838 21.1311 30.1732 21.1547 29.916C21.1547 29.7287 21.2017 29.6119 21.225 29.5653C21.7171 29.4948 21.9748 29.4246 22.2559 29.3547C22.7246 29.2376 22.912 28.9806 22.9354 28.396C23.0059 26.9928 23.0059 24.3265 22.9823 22.479V22.4321C22.9823 22.2218 22.9823 21.9643 22.7246 21.7773C22.3496 21.5436 21.9045 21.3333 21.3187 21.1691C21.108 21.0994 20.9673 20.9823 20.9907 20.8421C20.9907 20.7017 21.1314 20.538 21.436 20.4912C22.2092 20.421 24.2239 19.9301 25.0207 19.5791C25.0677 19.6257 25.138 19.7664 25.138 19.9534L25.1146 20.2104C25.091 20.4678 25.0677 20.7719 25.0677 21.0758C25.0677 21.1693 25.1616 21.2395 25.255 21.2395C25.302 21.2395 25.349 21.2162 25.3957 21.1926C26.8953 20.0233 28.2542 19.6024 28.957 19.6024C30.1054 19.6024 30.9959 20.1404 31.6753 21.2628C31.722 21.3333 31.769 21.3566 31.8393 21.3566C31.8861 21.3566 31.9561 21.3333 31.9798 21.2864C33.3623 20.2339 34.7448 19.6024 35.6583 19.6024C37.8374 19.6024 39.1262 21.2162 39.1262 23.9524C39.1262 24.7241 39.1262 25.7297 39.1028 26.642C39.1028 27.4603 39.0795 28.2087 39.0795 28.7467C39.0795 28.8633 39.2432 29.2376 39.501 29.3078C39.829 29.4715 40.2744 29.5417 40.8601 29.6352H40.8835C40.9305 29.7989 40.8368 30.4069 40.7431 30.524C40.6024 30.524 40.3914 30.524 40.1573 30.5007C39.5642 30.4698 38.9704 30.4541 38.3764 30.4538C36.9238 30.4538 36.174 30.4771 35.4474 30.524C35.4009 30.337 35.3773 29.7756 35.4474 29.6352C35.8693 29.5653 36.0801 29.4948 36.3381 29.4249C36.8068 29.2845 36.9238 29.0739 36.9474 28.4659C36.9474 28.0217 37.0409 24.233 36.9002 23.3209C36.7598 22.3855 36.0567 21.2864 34.5102 21.2864C33.9244 21.2864 33.0109 21.5203 32.1204 22.1982C32.0737 22.2451 32.0265 22.3619 32.0265 22.4321V22.4557C32.1204 22.9466 32.1204 23.5082 32.1204 24.3734V25.8934C32.1204 26.9459 32.0968 27.9282 32.1204 28.6763C32.1204 29.191 32.4251 29.3078 32.6828 29.4016C32.8235 29.4246 32.9169 29.4482 33.0342 29.4715C33.245 29.5184 33.456 29.5653 33.784 29.6352C33.831 29.729 33.831 30.0328 33.7606 30.2901C33.737 30.4305 33.6901 30.5004 33.6667 30.524C32.8702 30.5007 32.0501 30.4771 30.8552 30.4771C30.5038 30.4771 29.8944 30.5007 29.379 30.5007C28.957 30.5007 28.5589 30.524 28.3248 30.524C28.3012 30.4771 28.2542 30.3136 28.2542 30.0562C28.2542 29.8458 28.3012 29.6821 28.3481 29.6352C28.4652 29.6119 28.5589 29.5886 28.6762 29.5886C28.957 29.5417 29.1916 29.4948 29.4257 29.4482C29.8243 29.3314 29.9648 29.1208 29.9881 28.6063C30.0584 27.437 30.1288 24.0928 29.9648 23.2507C29.6837 21.8944 28.9105 21.2162 27.6684 21.2162C26.9423 21.2162 26.0282 21.5669 25.2787 22.1285C25.1614 22.2218 25.0677 22.4554 25.0677 22.666V24.0459C25.0677 25.7297 25.0677 27.8346 25.091 28.7467C25.1146 29.027 25.2081 29.3547 25.7471 29.4715C25.8644 29.4948 26.0518 29.5417 26.2862 29.5653L26.7076 29.6352C26.7549 29.7756 26.7313 30.337 26.6376 30.524C26.4032 30.524 26.1221 30.5007 25.7938 30.5007C25.302 30.4771 24.6693 30.4538 23.9665 30.4538C23.1464 30.4538 22.5606 30.4771 22.0919 30.5007C21.7638 30.4538 21.5061 30.4538 21.225 30.4538Z" fill="#442D22"/>
<path fill-rule="evenodd" clip-rule="evenodd" d="M8.90025 36.0666L7.93972 35.739C7.93972 35.739 8.05703 30.8514 6.29949 30.5007C5.12822 29.1441 6.48738 -27.03 10.7048 30.3134C10.7048 30.3134 9.25191 31.0382 8.99419 32.2779C8.71287 33.4941 8.90025 36.0666 8.90025 36.0666Z" fill="white"/>
<path fill-rule="evenodd" clip-rule="evenodd" d="M8.90025 36.0666L7.93972 35.739C7.93972 35.739 8.05703 30.8514 6.29949 30.5007C5.12822 29.1441 6.48738 -27.03 10.7048 30.3134C10.7048 30.3134 9.25191 31.0382 8.99419 32.2779C8.71287 33.4941 8.90025 36.0666 8.90025 36.0666Z" fill="#A6A385"/>
<path fill-rule="evenodd" clip-rule="evenodd" d="M9.41591 31.3425C9.41591 31.3425 17.8278 25.8232 15.8593 14.3403C13.9616 5.99171 9.48624 3.25548 8.99417 2.20301C8.45538 1.45465 7.9397 0.145203 7.9397 0.145203L8.29136 23.3675C8.29136 23.3911 7.56493 30.4771 9.41616 31.3428" fill="white"/>
<path fill-rule="evenodd" clip-rule="evenodd" d="M9.41591 31.3425C9.41591 31.3425 17.8278 25.8232 15.8593 14.3403C13.9616 5.99171 9.48624 3.25548 8.99417 2.20301C8.45538 1.45465 7.9397 0.145203 7.9397 0.145203L8.29136 23.3675C8.29136 23.3911 7.56493 30.4771 9.41616 31.3428" fill="#499D4A"/>
<path fill-rule="evenodd" clip-rule="evenodd" d="M7.44784 31.6464C7.44784 31.6464 -0.448641 26.2675 0.0200698 16.7962C0.465167 7.32472 6.04171 2.67083 7.11954 1.82896C7.82261 1.08059 7.84597 0.7998 7.89294 0.0514374C8.38501 1.10391 8.29132 15.7906 8.3614 17.521C8.57214 24.1861 7.98663 30.3838 7.44784 31.6464Z" fill="white"/>
<path fill-rule="evenodd" clip-rule="evenodd" d="M7.44784 31.6464C7.44784 31.6464 -0.448641 26.2675 0.0200698 16.7962C0.465167 7.32472 6.04171 2.67083 7.11954 1.82896C7.82261 1.08059 7.84597 0.7998 7.89294 0.0514374C8.38501 1.10391 8.29132 15.7906 8.3614 17.521C8.57214 24.1861 7.98663 30.3838 7.44784 31.6464Z" fill="#58AA50"/>
</g>
<defs>
<clipPath id="clip0_102_656">
<rect width="130" height="37" fill="white"/>
</clipPath>
</defs>
</svg>
