<svg width="56" height="56" viewBox="0 0 56 56" fill="none" xmlns="http://www.w3.org/2000/svg">
<path d="M38.2812 13.244C38.0082 13.244 37.8262 13.2807 37.6425 13.3262V13.3542H37.6705C37.7982 13.5905 38.0082 13.7742 38.171 13.993C38.2987 14.2397 38.4072 14.4935 38.5262 14.7402L38.563 14.7035C38.7817 14.5477 38.892 14.3027 38.892 13.9282C38.801 13.818 38.7817 13.7007 38.7012 13.5992C38.6102 13.4435 38.409 13.363 38.2812 13.244ZM13.4627 44.0317H11.3032C11.2378 40.5945 11.0282 37.1614 10.675 33.7417H10.6575L7.36746 44.0317H5.71721L2.45346 33.7417H2.42546C2.17182 37.1665 2.02009 40.598 1.97046 44.0317H0.00170898C0.108312 39.7165 0.427784 35.4092 0.958959 31.1255H3.63821L6.75496 40.6052H6.77246L9.91721 31.1255H12.4687C13.034 35.8295 13.3717 40.131 13.4715 44.0317H13.4627ZM22.8322 34.5082C21.9572 39.284 20.79 42.7577 19.3602 44.9172C18.2297 46.585 16.9995 47.4232 15.659 47.4232C15.3037 47.4232 14.8662 47.313 14.3377 47.0942V45.9462C14.602 45.983 14.903 46.0092 15.2407 46.0092C15.869 46.0092 16.3712 45.8272 16.7545 45.4895C17.2095 45.0695 17.4387 44.597 17.4387 44.0772C17.4387 43.7132 17.2655 42.9835 16.9015 41.8722L14.5407 34.5082H16.6652L18.361 40.0137C18.7442 41.272 18.9087 42.1382 18.8352 42.6387C19.7732 40.159 20.4207 37.443 20.7865 34.5082H22.8322ZM51.597 44.0317H45.4545V31.1255H47.523V42.4462H51.597V44.0317ZM43.8497 44.3432L41.4802 43.176C41.6902 43.0027 41.8897 42.812 42.0735 42.5932C43.085 41.4172 43.5872 39.6585 43.5872 37.3432C43.5872 33.068 41.9107 30.9365 38.556 30.9365C36.9145 30.9365 35.63 31.4737 34.7095 32.5587C33.7067 33.7435 33.1957 35.4935 33.1957 37.8C33.1957 40.0697 33.642 41.7287 34.5362 42.7945C35.357 43.743 36.5872 44.226 38.2375 44.226C38.8482 44.226 39.4135 44.1525 39.9245 43.9985L43.015 45.8027L43.862 44.345L43.8497 44.3432ZM36.1672 41.4435C35.6387 40.6052 35.3832 39.256 35.3832 37.3957C35.3832 34.1425 36.3685 32.5202 38.346 32.5202C39.3767 32.5202 40.1415 32.9122 40.6245 33.6875C41.1442 34.5345 41.4085 35.8662 41.4085 37.7072C41.4085 40.9797 40.4145 42.63 38.4457 42.63C37.4062 42.63 36.6502 42.238 36.1585 41.4627L36.1672 41.4435ZM32.3015 40.46C32.3015 41.5537 31.9007 42.4567 31.0887 43.148C30.2872 43.8497 29.2197 44.205 27.8617 44.205C26.5947 44.205 25.382 43.8042 24.1885 43.001L24.745 41.8897C25.7652 42.4007 26.6857 42.6562 27.5257 42.6562C28.301 42.6562 28.9117 42.483 29.3492 42.1452C29.7867 41.7987 30.051 41.3157 30.051 40.705C30.051 39.9385 29.5137 39.2822 28.5372 38.7362C27.6342 38.2357 25.8212 37.205 25.8212 37.205C24.836 36.4857 24.353 35.7192 24.353 34.4522C24.353 33.404 24.717 32.5657 25.4467 31.927C26.1852 31.2707 27.1232 30.9522 28.2905 30.9522C29.4517 30.9422 30.5902 31.2752 31.563 31.9095L31.0625 33.0207C30.2805 32.6764 29.437 32.4937 28.5827 32.4835C27.9177 32.4835 27.4067 32.648 27.0515 32.9665C26.6962 33.285 26.4775 33.6857 26.4775 34.188C26.4775 34.9545 27.0252 35.6107 28.0262 36.1742C28.9467 36.6747 30.7965 37.7335 30.7965 37.7335C31.808 38.444 32.3102 39.2105 32.3102 40.4582L32.3015 40.46ZM54.187 26.7977C52.9375 26.7697 51.9715 26.8975 51.1612 27.244C50.9337 27.335 50.5592 27.335 50.5225 27.6272C50.6502 27.755 50.6677 27.9562 50.778 28.1277C50.9687 28.4375 51.289 28.8575 51.59 29.0762C51.919 29.3317 52.2462 29.5872 52.584 29.806C53.1947 30.1805 53.879 30.3992 54.4792 30.772C54.817 30.9907 55.1635 31.2725 55.4995 31.5017C55.6727 31.6207 55.7812 31.8307 56 31.9025V31.857C55.8897 31.7205 55.8635 31.5192 55.7532 31.3565C55.5975 31.2007 55.4435 31.0642 55.2877 30.9102C54.8313 30.3043 54.2841 29.7725 53.6655 29.3335C53.165 28.9957 52.0712 28.5215 51.87 27.9475L51.842 27.9107C52.1797 27.8827 52.5805 27.755 52.9077 27.664C53.4362 27.5275 53.928 27.5537 54.4757 27.4172C54.727 27.352 54.9762 27.2791 55.223 27.1985V27.062C54.9412 26.7802 54.7312 26.397 54.439 26.1327C53.6336 25.4281 52.7741 24.7879 51.8682 24.2182C51.3765 23.8997 50.757 23.6985 50.2372 23.4342C50.0552 23.3432 49.7367 23.2977 49.6352 23.142C49.3535 22.7955 49.189 22.3492 48.9877 21.938C48.5299 21.0483 48.1044 20.1424 47.712 19.222C47.4302 18.6112 47.2657 18.0092 46.9192 17.444C45.3145 14.791 43.5645 13.188 40.8852 11.6112C40.3112 11.2822 39.6182 11.1457 38.8885 10.9725C38.4965 10.955 38.1132 10.927 37.7212 10.9095C37.4657 10.7992 37.2207 10.5087 37.002 10.3617C36.1095 9.79649 33.8117 8.58374 33.1642 10.1885C32.7442 11.2087 33.7837 12.2027 34.1495 12.7137C34.4137 13.0777 34.7515 13.4802 34.9422 13.881C35.0525 14.154 35.0787 14.4375 35.189 14.7192C35.4357 15.4035 35.672 16.1682 36.001 16.807C36.1742 17.136 36.3562 17.4807 36.575 17.773C36.7027 17.9462 36.9215 18.0197 36.967 18.3015C36.7482 18.62 36.7307 19.0855 36.6117 19.4687C36.0465 21.2362 36.2652 23.415 37.058 24.7187C37.3135 25.1107 37.905 25.9682 38.6995 25.6392C39.4012 25.3575 39.2472 24.472 39.4467 23.688C39.4922 23.4972 39.4642 23.3782 39.557 23.2505V23.2872C39.7845 23.7247 40.0032 24.1447 40.2045 24.5822C40.6787 25.3487 41.5257 26.1415 42.2275 26.67C42.602 26.9517 42.8925 27.4365 43.358 27.608V27.5625H43.3212C43.2215 27.426 43.0937 27.3612 42.966 27.2527C42.6704 26.96 42.3961 26.6465 42.1452 26.3147C41.4977 25.4397 40.915 24.4737 40.404 23.4797C40.1578 22.9886 39.933 22.4871 39.7302 21.9765C39.6392 21.7945 39.6392 21.511 39.4835 21.42C39.2472 21.7577 38.9007 22.0482 38.7362 22.477C38.4352 23.142 38.4072 23.9715 38.29 24.829C38.2357 24.8465 38.262 24.829 38.2357 24.8657C37.7352 24.738 37.562 24.227 37.3782 23.7895C36.904 22.6782 36.8305 20.9002 37.233 19.6245C37.3432 19.2955 37.807 18.2665 37.625 17.9567C37.5252 17.6557 37.2155 17.4825 37.051 17.2462C36.841 16.954 36.631 16.5812 36.4857 16.2522C36.1112 15.3772 35.9292 14.4112 35.5197 13.5362C35.3377 13.1355 35.0087 12.7155 34.7445 12.3427C34.4435 11.9227 34.1162 11.6235 33.887 11.13C33.8047 10.9567 33.6962 10.675 33.824 10.4912C33.852 10.3635 33.915 10.318 34.0427 10.2812C34.244 10.108 34.8267 10.3267 35.028 10.4265C35.602 10.654 36.085 10.8727 36.568 11.2017C36.7867 11.3575 37.023 11.648 37.3065 11.7302H37.6355C38.136 11.8405 38.6925 11.7582 39.158 11.9035C39.9875 12.1677 40.7347 12.551 41.4085 12.9692C43.4689 14.2919 45.1444 16.1341 46.2665 18.3102C46.4572 18.6655 46.5395 18.9945 46.7127 19.3672C47.0312 20.1425 47.4425 20.916 47.7697 21.6545C48.097 22.393 48.4085 23.1402 48.881 23.751C49.1172 24.08 50.0482 24.2515 50.4752 24.416C50.785 24.5612 51.268 24.689 51.541 24.8535C52.0782 25.1825 52.6067 25.5552 53.109 25.9192C53.3645 26.0925 54.1397 26.4845 54.1852 26.7942L54.187 26.7977Z" fill="black"/>
</svg>
