<svg width="63" height="38" viewBox="0 0 63 38" fill="none" xmlns="http://www.w3.org/2000/svg">
<path d="M14.8653 9.90718H26.7477V10.8512H15.9545V17.9552H26.1041V18.899H15.9545V26.6986H26.8715V27.6425H14.8653V9.90718ZM27.8123 9.90718H29.0747L34.6693 17.7068L40.3877 9.90705L48.1656 0L35.3872 18.5265L41.972 27.6425H40.66L34.6693 19.3462L28.6538 27.6425H27.3666L34.0009 18.5264L27.8122 9.90718H27.8123ZM42.4423 10.8512V9.90705H55.9834V10.851H49.745V27.6424H48.6558V10.8512H42.4423ZM0 9.90705H1.36151L20.136 37.9856L12.3775 27.6424L1.13868 11.2485L1.08921 27.6426H0V9.90705ZM55.8736 26.4136C55.651 26.4136 55.4842 26.2414 55.4842 26.0186C55.4842 25.796 55.651 25.6236 55.8736 25.6236C56.0988 25.6236 56.2631 25.7959 56.2631 26.0186C56.2631 26.2413 56.0988 26.4136 55.8736 26.4136ZM56.9439 25.3744H57.5268C57.5346 25.6898 57.7651 25.902 58.1042 25.902C58.4831 25.902 58.6977 25.674 58.6977 25.2471V22.5429H59.2911V25.2497C59.2911 26.0186 58.8461 26.4614 58.1095 26.4614C57.418 26.4614 56.9439 26.0318 56.9439 25.3743V25.3744ZM60.0673 25.34H60.6555C60.7058 25.7031 61.0608 25.9337 61.5722 25.9337C62.049 25.9337 62.3987 25.6871 62.3987 25.3478C62.3987 25.0563 62.1761 24.8813 61.6701 24.762L61.1773 24.6427C60.4858 24.4809 60.1707 24.1468 60.1707 23.5848C60.1707 22.9035 60.727 22.4501 61.5615 22.4501C62.3376 22.4501 62.9046 22.9034 62.9391 23.5477H62.3615C62.3059 23.1951 61.9985 22.975 61.5535 22.975C61.0847 22.975 60.7721 23.2004 60.7721 23.545C60.7721 23.818 60.9733 23.9746 61.4714 24.0911L61.8926 24.1946C62.6768 24.3776 63 24.6957 63 25.271C63 26.0027 62.4331 26.4614 61.5271 26.4614C60.6793 26.4614 60.1096 26.0238 60.0673 25.3398V25.34Z" fill="black"/>
</svg>
