<svg width="39" height="39" viewBox="0 0 39 39" fill="none" xmlns="http://www.w3.org/2000/svg">
<g clip-path="url(#clip0_102_660)">
<path d="M28.9441 36.5678C28.7991 36.6446 28.8112 36.669 28.9502 36.5983C28.993 36.5808 29.0323 36.5556 29.066 36.5239C29.066 36.4983 29.066 36.4983 28.9441 36.5678ZM29.2366 36.4094C29.1671 36.4666 29.1671 36.4666 29.25 36.4289C29.2806 36.4145 29.3086 36.3952 29.3329 36.3716C29.3329 36.3387 29.3134 36.346 29.2366 36.4094ZM29.4267 36.2948C29.3573 36.3521 29.3573 36.3521 29.4401 36.3143C29.4709 36.2996 29.4989 36.2799 29.523 36.2558C29.523 36.2253 29.5035 36.2314 29.4267 36.2948ZM29.6193 36.1814C29.5498 36.2387 29.5498 36.2387 29.6303 36.1997C29.6753 36.1754 29.7131 36.1498 29.7131 36.1425C29.7131 36.112 29.6936 36.1181 29.6193 36.1814ZM29.8789 36.0096C29.746 36.0986 29.6997 36.1559 29.8216 36.0925C29.9032 36.0425 30.0422 35.9328 30.0178 35.9328C29.9654 35.9523 29.9215 35.9852 29.8777 36.0096H29.8789ZM18.224 0.0126085C18.135 0.0187023 17.8681 0.0430773 17.6341 0.0625773C12.0912 0.564702 6.90544 3.5482 3.61847 8.14411C1.802 10.6648 0.621268 13.5869 0.176719 16.662C0.0195 17.7345 0 18.0513 0 19.5053C0 20.958 0.0195 21.27 0.176719 22.3425C1.23825 29.6685 6.44963 35.8183 13.5135 38.0973C14.7847 38.5032 16.1168 38.7835 17.6341 38.9553C18.224 39.0187 20.7748 39.0187 21.3647 38.9553C23.9874 38.6628 26.2019 38.0157 28.3932 36.8981C28.7296 36.7275 28.793 36.6824 28.7479 36.6446C27.6789 35.2315 26.619 33.8117 25.5682 32.385L22.4518 28.1767L18.5482 22.3937C17.2497 20.4575 15.9379 18.5302 14.6128 16.612C14.5994 16.612 14.5823 19.1823 14.575 22.317C14.5616 27.8074 14.5616 28.0305 14.4922 28.1572C14.4255 28.3103 14.3062 28.4344 14.1558 28.507C14.0351 28.5643 13.9267 28.5765 13.3502 28.5765H12.6908L12.519 28.4692C12.4114 28.4002 12.3239 28.3039 12.2655 28.1901L12.1826 28.0183L12.1887 20.3755L12.2021 12.7327L12.3228 12.5804C12.3998 12.4867 12.4947 12.4092 12.6019 12.3525C12.7615 12.2757 12.8249 12.2635 13.4843 12.2635C14.2582 12.2635 14.3861 12.294 14.5897 12.517C16.171 14.869 17.7388 17.2302 19.2928 19.6004C21.8266 23.4419 25.2854 28.6837 26.9856 31.2553L30.0775 35.934L30.2299 35.8329C31.7158 34.8454 33.0624 33.6628 34.2335 32.3168C36.6899 29.5052 38.2839 26.0452 38.8245 22.3511C38.9817 21.2786 39.0012 20.9605 39.0012 19.5077C39.0012 18.0538 38.9817 17.743 38.8245 16.6705C37.763 9.34458 32.5516 3.19476 25.4877 0.914484C24.1675 0.496356 22.8087 0.211774 21.4317 0.0650148C21.0624 0.0272335 18.5421 -0.0178602 18.2252 0.015046L18.224 0.0126085ZM26.2031 11.8065C26.2938 11.851 26.3747 11.9132 26.441 11.9893C26.5073 12.0655 26.5578 12.1542 26.5895 12.2501C26.6224 12.3525 26.6285 14.4719 26.6224 19.2457L26.609 26.1L25.4036 24.2475L24.191 22.3937V17.4176C24.191 14.1915 24.2044 12.3829 24.2214 12.294C24.2811 12.09 24.4179 11.9173 24.6029 11.8125C24.754 11.7358 24.8125 11.7297 25.4158 11.7297C25.9801 11.7297 26.0752 11.7358 26.2019 11.8065H26.2031Z" fill="black"/>
</g>
<defs>
<clipPath id="clip0_102_660">
<rect width="39" height="39" fill="white"/>
</clipPath>
</defs>
</svg>
