<svg width="54" height="48" viewBox="0 0 54 48" fill="none" xmlns="http://www.w3.org/2000/svg">
<path d="M44.3988 15.542C43.8241 15.3452 43.2445 15.1629 42.6606 14.9953C42.7587 14.5953 42.849 14.2001 42.9292 13.8119C44.245 7.43698 43.3848 2.30119 40.4466 0.610244C37.6296 -1.01081 33.0225 0.679507 28.3696 4.72098C27.9111 5.12 27.4627 5.53052 27.0249 5.95214C26.7318 5.67177 26.4336 5.39685 26.1303 5.12751C21.2539 0.806244 16.366 -1.01502 13.431 0.68077C10.6165 2.30688 9.78307 7.13488 10.9677 13.1766C11.0856 13.7749 11.2186 14.3702 11.3668 14.9618C10.6749 15.158 10.0073 15.3669 9.36837 15.5892C3.65112 17.5787 0 20.6963 0 23.9302C0 27.2702 3.91964 30.6204 9.87441 32.6517C10.3572 32.8157 10.844 32.9677 11.3343 33.1075C11.1751 33.7447 11.0337 34.3862 10.9103 35.0313C9.78096 40.9681 10.6629 45.682 13.4698 47.2978C16.369 48.9665 21.2349 47.2515 25.9727 43.1178C26.3569 42.7818 26.7327 42.4362 27.0996 42.0814C27.5737 42.5379 28.0604 42.9812 28.5592 43.4107C33.1488 47.3521 37.6815 48.9437 40.4857 47.3235C43.382 45.65 44.3235 40.586 43.1013 34.425C43.005 33.9423 42.897 33.462 42.7775 32.9846C43.1192 32.8835 43.4546 32.7795 43.7816 32.6713C49.9721 30.6244 54 27.3149 54 23.9302C54 20.6846 50.231 17.5458 44.3988 15.542ZM43.0561 30.486C42.7608 30.5835 42.4579 30.6776 42.1491 30.7692C41.4657 28.6098 40.5435 26.3138 39.4147 23.9414C40.4918 21.6256 41.3786 19.3589 42.0428 17.2136C42.5952 17.3732 43.1312 17.5414 43.648 17.7189C48.6451 19.4359 51.6932 21.9742 51.6932 23.9302C51.6932 26.0136 48.4013 28.7182 43.0561 30.486ZM40.8383 34.8721C41.3788 37.5964 41.4558 40.0595 41.0978 41.9852C40.7763 43.7155 40.1296 44.869 39.3297 45.3311C37.6281 46.3142 33.9888 45.0364 30.0639 41.6654C29.5999 41.2661 29.1471 40.854 28.7061 40.4296C30.2278 38.7688 31.7484 36.838 33.2326 34.6936C35.8431 34.4625 38.3094 34.0844 40.546 33.5684C40.6561 34.0119 40.754 34.4469 40.8383 34.8721ZM18.4098 45.1612C16.7472 45.7471 15.4229 45.7639 14.6224 45.3033C12.9191 44.3229 12.211 40.5378 13.1768 35.4608C13.2917 34.8608 13.4231 34.2642 13.5711 33.6715C15.783 34.1599 18.2313 34.5111 20.848 34.7229C22.3423 36.8212 23.9068 38.7498 25.4836 40.4387C25.1485 40.7623 24.8055 41.0776 24.4548 41.3843C22.3596 43.2121 20.2601 44.509 18.4098 45.1612ZM10.6207 30.4732C7.98757 29.5749 5.81302 28.4075 4.32253 27.1336C2.98308 25.989 2.30702 24.8523 2.30702 23.9302C2.30702 21.9677 5.23842 19.4646 10.1277 17.7633C10.7211 17.557 11.3421 17.3622 11.9865 17.1795C12.6624 19.3732 13.5487 21.6669 14.6184 23.9862C13.5348 26.3399 12.6358 28.6702 11.9534 30.8898C11.5058 30.7619 11.0615 30.6229 10.6207 30.4732ZM13.2317 12.7342C12.2169 7.55803 12.8908 3.6534 14.587 2.6734C16.3934 1.62961 20.3882 3.11782 24.5987 6.84919C24.8732 7.09306 25.1434 7.34187 25.4089 7.59551C23.8399 9.27698 22.2898 11.1913 20.8088 13.2772C18.2691 13.5121 15.838 13.8894 13.6029 14.3949C13.4652 13.8446 13.3414 13.291 13.2317 12.7345V12.7342ZM36.5249 18.4749C35.997 17.5648 35.4494 16.6661 34.8827 15.7795C36.6057 15.997 38.2565 16.2856 39.8066 16.6385C39.3413 18.1273 38.7612 19.6837 38.0784 21.2795C37.5793 20.3344 37.0614 19.3993 36.5249 18.4749ZM27.0259 9.24098C28.0899 10.3915 29.1556 11.6759 30.2037 13.0696C28.0775 12.9694 25.9477 12.969 23.8214 13.0683C24.8706 11.6875 25.9453 10.4048 27.0259 9.24098ZM17.466 18.4907C16.9362 19.4077 16.428 20.3369 15.9416 21.2776C15.27 19.6875 14.6952 18.1239 14.2258 16.614C15.7665 16.27 17.4095 15.9888 19.1215 15.7753C18.5485 16.6673 17.9965 17.5726 17.466 18.4905V18.4907ZM19.1706 32.249C17.4019 32.0519 15.7343 31.7852 14.194 31.4505C14.6707 29.9136 15.2582 28.3168 15.9443 26.6926C16.4326 27.634 16.943 28.5638 17.4751 29.4812C18.0223 30.4244 18.5889 31.3481 19.1706 32.249ZM27.0896 38.7816C25.9961 37.6044 24.9056 36.3018 23.8406 34.901C24.8746 34.9414 25.9286 34.962 27 34.962C28.1007 34.962 29.1887 34.9374 30.2596 34.8898C29.2081 36.3159 28.1464 37.6204 27.0896 38.7816ZM38.1002 26.6096C38.822 28.2517 39.4303 29.8401 39.9134 31.3507C38.3478 31.7073 36.6574 31.9945 34.8762 32.2077C35.4469 31.3047 35.9996 30.3904 36.534 29.4654C37.0772 28.5252 37.5994 27.573 38.1002 26.6096ZM34.5357 28.3151C33.7178 29.7333 32.8538 31.1245 31.9452 32.4867C30.2994 32.603 28.6499 32.6608 27 32.6599C25.3195 32.6599 23.6849 32.6077 22.1109 32.5058C21.1786 31.1468 20.2981 29.7531 19.4714 28.3277H19.4716C18.6488 26.9098 17.8802 25.4613 17.1676 23.9852C17.8784 22.5087 18.6447 21.0595 19.4647 19.6406L19.4645 19.6408C20.2842 18.2214 21.1576 16.8337 22.0828 15.4806C23.6887 15.3593 25.3355 15.2961 26.9998 15.2961H27C28.6719 15.2961 30.3208 15.3599 31.9262 15.482C32.8421 16.8332 33.71 18.2161 34.5281 19.6283C35.3509 21.0442 36.1273 22.4863 36.8561 23.9526C36.1348 25.4338 35.3608 26.8889 34.5357 28.3151ZM39.2945 2.60477C41.1026 3.64561 41.8059 7.84288 40.6698 13.3471C40.5972 13.6982 40.5158 14.0559 40.4272 14.4187C38.1866 13.9025 35.7539 13.5187 33.2068 13.2801C31.7231 11.1713 30.1856 9.25403 28.6421 7.59424C29.0467 7.20509 29.4608 6.82602 29.8841 6.4574C33.8709 2.99488 37.5969 1.62772 39.2945 2.60477ZM27 19.1176C29.6631 19.1176 31.822 21.2723 31.822 23.9302C31.822 26.5881 29.6631 28.7429 27 28.7429C24.3369 28.7429 22.178 26.5881 22.178 23.9302C22.178 21.2723 24.3369 19.1176 27 19.1176Z" fill="#00D8FF"/>
</svg>
