<svg width="411" height="76" viewBox="0 0 411 76" fill="none" xmlns="http://www.w3.org/2000/svg">
<path fill-rule="evenodd" clip-rule="evenodd" d="M0 67.3353L17.125 55.7824C34.25 44.2295 68.5 21.1237 102.75 9.57075C137 -1.98217 171.25 -1.98217 205.5 3.79429C239.75 9.57075 274 21.1237 308.25 22.5678C342.5 24.0119 376.75 15.3472 393.875 11.0149L411 6.68252V76H393.875C376.75 76 342.5 76 308.25 76C274 76 239.75 76 205.5 76C171.25 76 137 76 102.75 76C68.5 76 34.25 76 17.125 76H0V67.3353Z" fill="white"/>
</svg>
