<svg width="32" height="32" viewBox="0 0 32 32" fill="none" xmlns="http://www.w3.org/2000/svg">
<path d="M30.0533 8.55992C29.8949 7.92713 29.5724 7.34735 29.1182 6.87913C28.664 6.41091 28.0943 6.07083 27.4667 5.89325C25.1733 5.33325 16 5.33325 16 5.33325C16 5.33325 6.82667 5.33325 4.53333 5.94659C3.90566 6.12416 3.33597 6.46424 2.8818 6.93246C2.42762 7.40068 2.10505 7.98046 1.94667 8.61325C1.52695 10.9407 1.32165 13.3017 1.33333 15.6666C1.31837 18.0493 1.52369 20.4283 1.94667 22.7733C2.12128 23.3864 2.45108 23.9441 2.90419 24.3926C3.35731 24.841 3.91843 25.165 4.53333 25.3333C6.82667 25.9466 16 25.9466 16 25.9466C16 25.9466 25.1733 25.9466 27.4667 25.3333C28.0943 25.1557 28.664 24.8156 29.1182 24.3474C29.5724 23.8792 29.8949 23.2994 30.0533 22.6666C30.4698 20.3567 30.6751 18.0137 30.6667 15.6666C30.6816 13.2839 30.4763 10.9048 30.0533 8.55992V8.55992Z" stroke="#EEEEEE" stroke-width="2" stroke-linecap="round" stroke-linejoin="round"/>
<path d="M13 20.0266L20.6667 15.6666L13 11.3066V20.0266Z" stroke="#EEEEEE" stroke-width="2" stroke-linecap="round" stroke-linejoin="round"/>
</svg>
